PathFileType	4	(X/Y/Z)	C:/Users/opensim2020/Desktop/walking_exp_matlab/subject01_walking15_straight_02.trc	
DataRate	CameraRate	NumFrames	NumMarkers	Units	OrigDataRate	OrigDataStartFrame	OrigNumFrames	
100.00	100.00	4	43	mm	100.00	1178	135	
Frame#	Time	LFHD			RFHD			LBHD			RBHD			C7			T10			CLAV			STRN			RBAK			LSHO			LUPA			LELB			LFRM			LWRA			LWRB			LFIN			RSHO			RUPA			RELB			RFRM			RWRA			RWRB			RFIN			LASI			RASI			LPSI			RPSI			LTHI			LKNE			LTIB			LANK			LHEE			LTOE			RTHI			RKNE			RTIB			RANK			RHEE			RTOE			*39			*40			*41			*42			
		X1	Y1	Z1	X2	Y2	Z2	X3	Y3	Z3	X4	Y4	Z4	X5	Y5	Z5	X6	Y6	Z6	X7	Y7	Z7	X8	Y8	Z8	X9	Y9	Z9	X10	Y10	Z10	X11	Y11	Z11	X12	Y12	Z12	X13	Y13	Z13	X14	Y14	Z14	X15	Y15	Z15	X16	Y16	Z16	X17	Y17	Z17	X18	Y18	Z18	X19	Y19	Z19	X20	Y20	Z20	X21	Y21	Z21	X22	Y22	Z22	X23	Y23	Z23	X24	Y24	Z24	X25	Y25	Z25	X26	Y26	Z26	X27	Y27	Z27	X28	Y28	Z28	X29	Y29	Z29	X30	Y30	Z30	X31	Y31	Z31	X32	Y32	Z32	X33	Y33	Z33	X34	Y34	Z34	X35	Y35	Z35	X36	Y36	Z36	X37	Y37	Z37	X38	Y38	Z38	X39	Y39	Z39	X40	Y40	Z40	X41	Y41	Z41	X42	Y42	Z42	X43	Y43	Z43	

34	0.330	-1030.05872	531.43713	1658.59802	-1137.35901	491.67838	1669.23474	-1067.70203	636.12073	1604.10242	-1181.78857	597.77148	1614.28870	-1096.85669	650.91748	1420.83850	-1106.50854	696.38800	1127.25977	-1101.12622	504.91788	1352.70068	-1097.75293	467.96423	1195.55371	-1172.63672	712.82483	1231.20459	-940.13489	561.40277	1387.19556	-848.72888	569.18268	1207.97290	-834.32336	554.55756	1054.59070	-823.59991	450.38373	997.10614	-854.29315	318.08661	975.55774	-832.26868	349.43689	930.05847	-826.70868	266.22131	918.78180	-1249.95630	572.31702	1385.94983	-1345.18713	674.79242	1204.32996	-1355.42126	696.23389	1084.81360	-1394.87769	714.96875	971.26678	-1386.81470	688.66364	829.01477	-1424.66919	727.77008	851.43701	-1426.01587	732.39441	761.09412	-989.46460	528.81219	917.78278	-1203.83911	506.18362	927.70807	-1062.03979	707.80695	931.39087	-1207.03943	691.69196	933.11603	-950.01422	628.92285	585.98492	-966.70300	675.14905	457.22253	-975.28888	822.85767	334.53357	-1038.44128	966.18304	170.19659	-1095.32178	1005.57037	185.77277	-1053.96143	899.05847	38.03997	-1269.35120	474.16495	606.57391	-1238.64392	417.32916	461.45398	-1254.13879	437.25391	286.26093	-1212.92163	432.46262	77.54623	-1168.15991	482.98886	38.12033	-1201.79651	292.45520	41.23826	-1117.43457	512.02203	1700.73145	-3101.73145	1973.23193	1023.40881	-3140.74390	2012.50403	1022.07239			 
35	0.340	-1032.71338	518.14276	1659.64185	-1139.98572	478.41208	1670.08337	-1070.33044	622.77814	1604.74854	-1184.46985	584.35345	1614.78943	-1098.69031	637.17566	1421.56775	-1107.13782	682.25208	1128.03540	-1102.98657	491.07178	1353.74133	-1099.04370	453.73251	1196.74219	-1174.00037	698.48462	1231.63232	-942.25775	547.46558	1388.35889	-850.13214	556.70258	1209.55762	-834.91284	544.06409	1056.24158	-823.93597	440.20517	998.00751	-854.70404	308.34808	974.47717	-832.12134	340.11105	929.49310	-827.29602	256.79227	917.17462	-1251.76758	558.50726	1386.65723	-1346.98755	659.43011	1204.18396	-1357.27832	680.13678	1084.59875	-1396.68237	697.59943	970.92859	-1388.51697	670.40094	828.85382	-1426.72522	709.26605	851.17236	-1428.26538	713.07031	760.75739	-991.03088	514.21674	918.73120	-1204.84290	491.87628	929.44281	-1062.15308	693.02057	932.07556	-1207.09326	677.04852	934.44971	-948.14795	608.33990	585.23743	-963.23462	651.81671	455.98508	-972.07477	801.89417	337.55414	-1034.76770	949.86322	177.28847	-1091.77026	986.40527	196.69748	-1054.97009	897.53839	38.43707	-1269.79736	459.72891	606.80457	-1239.13843	405.93365	460.37366	-1254.91870	427.87332	284.22479	-1212.18152	430.85538	77.26752	-1168.28027	482.46155	38.50147	-1200.43188	291.19830	39.81065	-1120.09583	498.36472	1701.75635	-3101.92114	1973.10901	1023.48547	-3140.66602	2012.42139	1022.15076			 
36	0.350	-1035.18408	505.08240	1660.71741	-1142.57568	465.17542	1670.92786	-1072.75000	609.39209	1605.40234	-1186.84229	570.95660	1615.14893	-1100.53552	623.73492	1422.09253	-1107.51819	667.96411	1128.74023	-1104.57788	477.16199	1354.88660	-1100.11450	439.58658	1197.95776	-1175.15308	684.11121	1231.88770	-944.23547	533.87921	1389.56201	-851.37982	544.34753	1211.09631	-835.70825	533.55127	1058.09204	-824.21533	430.75241	998.77338	-855.27203	299.25577	972.70496	-832.05121	331.48843	928.45184	-827.79822	248.16412	915.04120	-1253.43652	544.54272	1387.52002	-1348.59167	644.12689	1204.41223	-1359.05518	663.98041	1084.68970	-1398.49597	679.90497	970.86322	-1390.07263	651.36285	829.02936	-1428.29822	689.66406	850.79358	-1430.32471	692.81213	760.47473	-992.63971	499.59415	919.87238	-1206.11279	477.54532	930.95160	-1062.45703	678.48010	932.88892	-1207.41748	662.51843	936.14984	-946.33667	587.37842	584.56854	-960.03351	627.83795	454.58813	-969.14374	779.62317	340.25699	-1030.39722	932.34406	183.84016	-1087.44336	966.20367	207.34308	-1055.05542	892.78986	41.30647	-1270.26514	446.68964	606.42072	-1239.38013	395.59146	458.63062	-1255.49597	421.15369	282.84537	-1211.70068	429.58618	77.05645	-1168.20496	482.29318	38.66387	-1199.64648	290.18246	38.98982	-1122.73218	485.21060	1702.37354	-3101.91504	1973.02319	1023.56555	-3140.67627	2012.46912	1022.11993			 
37	0.360	-1037.48340	491.85242	1661.82910	-1144.56726	452.21613	1671.70557	-1074.93909	596.01776	1606.16907	-1189.14514	557.63269	1615.58777	-1102.33594	610.46216	1422.61841	-1108.02917	654.49237	1129.72119	-1106.00537	463.48328	1355.98804	-1101.02234	425.56784	1199.15222	-1176.22705	669.68109	1232.15771	-945.93396	520.53912	1390.71289	-852.48932	532.04248	1212.59485	-836.46490	523.63568	1059.67957	-824.64105	421.67380	999.09509	-855.68030	290.81876	970.50519	-831.84509	323.53531	926.97748	-828.72833	239.98840	911.76099	-1254.75708	530.44073	1388.49561	-1350.18213	628.73352	1204.85437	-1360.85486	647.86823	1084.90979	-1400.14307	661.88336	970.63049	-1391.44958	631.62378	829.30780	-1430.08215	669.99847	850.71948	-1432.17700	671.56628	760.18976	-994.10950	484.94537	921.19861	-1207.54370	463.58615	932.16626	-1063.00427	664.13647	933.79053	-1208.00220	648.03748	937.82452	-944.94342	566.18280	584.00269	-957.09296	603.13586	453.22672	-966.02979	756.27271	342.91394	-1026.93005	913.42639	191.01308	-1083.06726	945.37085	217.92548	-1054.11633	884.63031	46.01537	-1270.61377	435.53610	605.97876	-1239.57019	385.84161	456.88495	-1255.47021	416.34268	282.14374	-1211.37256	429.00385	76.85166	-1168.12842	482.27457	38.78032	-1199.39526	289.80927	38.40456	-1125.51782	472.28506	1703.14282	-3101.98291	1973.09851	1023.57172	-3140.63721	2012.47644	1022.03308			 
